<svg id="svg" version="1.1" xmlns="http://www.w3.org/2000/svg" xmlns:xlink="http://www.w3.org/1999/xlink" width="400" height="400" viewBox="0, 0, 400,400"><g id="svgg"><path id="path0" d="M178.300 0.274 C 176.375 0.360,174.800 0.604,174.800 0.816 C 174.800 1.027,173.551 1.200,172.024 1.200 C 170.497 1.200,169.136 1.380,169.000 1.600 C 168.864 1.820,167.773 2.000,166.576 2.000 C 165.379 2.000,164.400 2.180,164.400 2.400 C 164.400 2.620,163.410 2.800,162.200 2.800 C 160.990 2.800,160.000 2.980,160.000 3.200 C 160.000 3.420,159.201 3.600,158.224 3.600 C 157.247 3.600,156.336 3.780,156.200 4.000 C 156.064 4.220,155.243 4.400,154.376 4.400 C 153.509 4.400,152.800 4.580,152.800 4.800 C 152.800 5.020,152.080 5.200,151.200 5.200 C 150.320 5.200,149.600 5.380,149.600 5.600 C 149.600 5.820,148.970 6.000,148.200 6.000 C 147.430 6.000,146.800 6.180,146.800 6.400 C 146.800 6.620,146.170 6.800,145.400 6.800 C 144.630 6.800,144.000 6.980,144.000 7.200 C 144.000 7.420,143.370 7.600,142.600 7.600 C 141.830 7.600,141.200 7.780,141.200 8.000 C 141.200 8.220,140.795 8.401,140.300 8.402 C 138.789 8.406,128.837 11.755,125.905 13.247 C 125.523 13.441,124.938 13.600,124.605 13.600 C 124.272 13.600,124.000 13.747,124.000 13.928 C 124.000 14.108,123.100 14.500,122.000 14.800 C 120.900 15.100,120.000 15.492,120.000 15.672 C 120.000 15.853,119.640 16.000,119.200 16.000 C 118.760 16.000,118.400 16.180,118.400 16.400 C 118.400 16.620,118.040 16.800,117.600 16.800 C 117.160 16.800,116.800 16.980,116.800 17.200 C 116.800 17.420,116.440 17.600,116.000 17.600 C 115.560 17.600,115.200 17.780,115.200 18.000 C 115.200 18.220,114.750 18.400,114.200 18.400 C 113.650 18.400,113.200 18.580,113.200 18.800 C 113.200 19.020,112.840 19.200,112.400 19.200 C 111.960 19.200,111.600 19.380,111.600 19.600 C 111.600 19.820,111.240 20.000,110.800 20.000 C 110.360 20.000,110.000 20.180,110.000 20.400 C 110.000 20.620,109.640 20.800,109.200 20.800 C 108.760 20.800,108.400 20.980,108.400 21.200 C 108.400 21.420,108.040 21.600,107.600 21.600 C 107.160 21.600,106.800 21.746,106.800 21.925 C 106.800 22.104,106.178 22.495,105.418 22.793 C 104.658 23.091,104.129 23.485,104.242 23.668 C 104.355 23.850,104.077 24.000,103.624 24.000 C 103.171 24.000,102.800 24.180,102.800 24.400 C 102.800 24.620,102.440 24.800,102.000 24.800 C 101.560 24.800,101.200 24.980,101.200 25.200 C 101.200 25.420,100.882 25.600,100.493 25.600 C 100.104 25.600,99.123 26.050,98.314 26.600 C 97.505 27.150,96.733 27.600,96.599 27.600 C 96.343 27.600,91.544 30.774,91.200 31.171 C 91.090 31.297,90.505 31.656,89.900 31.968 C 89.295 32.280,88.800 32.685,88.800 32.868 C 88.800 33.050,88.480 33.200,88.088 33.200 C 87.697 33.200,87.117 33.560,86.800 34.000 C 86.483 34.440,86.038 34.800,85.812 34.801 C 85.585 34.801,84.770 35.341,84.000 36.000 C 83.230 36.659,82.415 37.199,82.188 37.199 C 81.962 37.200,81.517 37.560,81.200 38.000 C 80.883 38.440,80.420 38.800,80.171 38.800 C 79.922 38.800,79.154 39.340,78.463 40.000 C 77.772 40.660,77.117 41.200,77.007 41.200 C 76.896 41.200,76.400 41.549,75.903 41.976 C 75.406 42.402,74.567 43.122,74.039 43.576 C 73.510 44.029,72.937 44.400,72.765 44.400 C 72.594 44.400,71.562 45.255,70.473 46.300 C 68.197 48.485,66.881 49.600,66.581 49.600 C 66.466 49.600,64.573 51.445,62.373 53.700 C 57.566 58.628,58.628 57.566,53.700 62.373 C 51.445 64.573,49.600 66.543,49.600 66.753 C 49.600 66.962,48.430 68.327,47.000 69.785 C 45.570 71.243,44.400 72.581,44.400 72.757 C 44.400 72.933,44.029 73.510,43.576 74.039 C 43.122 74.567,42.402 75.406,41.976 75.903 C 41.549 76.400,41.200 76.896,41.200 77.007 C 41.200 77.117,40.660 77.772,40.000 78.463 C 39.340 79.154,38.800 79.922,38.800 80.171 C 38.800 80.420,38.440 80.883,38.000 81.200 C 37.560 81.517,37.200 82.025,37.200 82.328 C 37.200 82.631,36.660 83.383,36.000 84.000 C 35.340 84.617,34.800 85.369,34.800 85.672 C 34.800 85.975,34.440 86.483,34.000 86.800 C 33.560 87.117,33.200 87.657,33.200 88.000 C 33.200 88.343,32.850 88.876,32.421 89.185 C 31.993 89.493,31.719 89.869,31.813 90.021 C 31.906 90.172,31.552 90.796,31.026 91.409 C 30.501 92.021,29.830 92.989,29.536 93.561 C 29.242 94.132,28.887 94.690,28.747 94.800 C 28.485 95.006,27.365 96.909,25.733 99.921 C 25.220 100.868,24.800 101.903,24.800 102.221 C 24.800 102.540,24.620 102.800,24.400 102.800 C 24.180 102.800,24.000 103.171,24.000 103.624 C 24.000 104.077,23.850 104.355,23.668 104.242 C 23.485 104.129,23.091 104.658,22.793 105.418 C 22.495 106.178,22.104 106.800,21.925 106.800 C 21.746 106.800,21.600 107.160,21.600 107.600 C 21.600 108.040,21.420 108.400,21.200 108.400 C 20.980 108.400,20.800 108.760,20.800 109.200 C 20.800 109.640,20.620 110.000,20.400 110.000 C 20.180 110.000,20.000 110.360,20.000 110.800 C 20.000 111.240,19.864 111.600,19.698 111.600 C 19.531 111.600,19.145 112.185,18.839 112.900 C 18.533 113.615,17.949 114.909,17.541 115.775 C 17.134 116.641,16.800 117.586,16.800 117.875 C 16.800 118.164,16.620 118.400,16.400 118.400 C 16.180 118.400,16.000 118.760,16.000 119.200 C 16.000 119.640,15.820 120.000,15.600 120.000 C 15.380 120.000,15.200 120.349,15.200 120.776 C 15.200 121.203,15.020 121.664,14.800 121.800 C 14.580 121.936,14.400 122.487,14.400 123.024 C 14.400 123.561,14.220 124.000,14.000 124.000 C 13.780 124.000,13.600 124.272,13.600 124.605 C 13.600 124.938,13.441 125.523,13.247 125.905 C 12.771 126.840,12.182 128.307,11.600 130.000 C 11.336 130.770,10.965 131.760,10.776 132.200 C 9.914 134.212,8.400 139.314,8.400 140.208 C 8.400 140.754,8.220 141.200,8.000 141.200 C 7.780 141.200,7.600 141.830,7.600 142.600 C 7.600 143.370,7.420 144.000,7.200 144.000 C 6.980 144.000,6.800 144.529,6.800 145.176 C 6.800 145.823,6.620 146.464,6.400 146.600 C 6.180 146.736,6.000 147.467,6.000 148.224 C 6.000 148.981,5.820 149.600,5.600 149.600 C 5.380 149.600,5.200 150.320,5.200 151.200 C 5.200 152.080,5.020 152.800,4.800 152.800 C 4.580 152.800,4.400 153.599,4.400 154.576 C 4.400 155.553,4.220 156.464,4.000 156.600 C 3.780 156.736,3.600 157.546,3.600 158.400 C 3.600 159.254,3.420 160.064,3.200 160.200 C 2.980 160.336,2.800 161.236,2.800 162.200 C 2.800 163.164,2.620 164.064,2.400 164.200 C 2.180 164.336,2.000 165.517,2.000 166.824 C 2.000 168.141,1.822 169.200,1.600 169.200 C 1.376 169.200,1.200 170.307,1.200 171.720 C 1.200 173.203,0.994 174.446,0.700 174.740 C 0.311 175.129,0.200 180.743,0.200 200.087 C 0.200 219.608,0.307 224.969,0.700 225.100 C 1.036 225.212,1.200 226.176,1.200 228.033 C 1.200 229.611,1.372 230.800,1.600 230.800 C 1.822 230.800,2.000 231.859,2.000 233.176 C 2.000 234.483,2.180 235.664,2.400 235.800 C 2.620 235.936,2.800 236.836,2.800 237.800 C 2.800 238.764,2.980 239.664,3.200 239.800 C 3.420 239.936,3.600 240.746,3.600 241.600 C 3.600 242.454,3.780 243.264,4.000 243.400 C 4.220 243.536,4.400 244.447,4.400 245.424 C 4.400 246.401,4.580 247.200,4.800 247.200 C 5.020 247.200,5.200 247.920,5.200 248.800 C 5.200 249.680,5.380 250.400,5.600 250.400 C 5.820 250.400,6.000 251.019,6.000 251.776 C 6.000 252.533,6.180 253.264,6.400 253.400 C 6.620 253.536,6.800 254.076,6.800 254.600 C 6.800 255.124,6.980 255.664,7.200 255.800 C 7.420 255.936,7.600 256.667,7.600 257.424 C 7.600 258.181,7.780 258.800,8.000 258.800 C 8.220 258.800,8.400 259.246,8.400 259.792 C 8.400 260.686,9.914 265.788,10.776 267.800 C 10.965 268.240,11.336 269.230,11.600 270.000 C 12.182 271.693,12.771 273.160,13.247 274.095 C 13.441 274.477,13.600 275.062,13.600 275.395 C 13.600 275.728,13.780 276.000,14.000 276.000 C 14.220 276.000,14.400 276.439,14.400 276.976 C 14.400 277.513,14.580 278.064,14.800 278.200 C 15.020 278.336,15.200 278.797,15.200 279.224 C 15.200 279.651,15.380 280.000,15.600 280.000 C 15.820 280.000,16.000 280.360,16.000 280.800 C 16.000 281.240,16.180 281.600,16.400 281.600 C 16.620 281.600,16.800 281.960,16.800 282.400 C 16.800 282.840,16.980 283.200,17.200 283.200 C 17.420 283.200,17.600 283.650,17.600 284.200 C 17.600 284.750,17.780 285.200,18.000 285.200 C 18.220 285.200,18.400 285.560,18.400 286.000 C 18.400 286.440,18.580 286.800,18.800 286.800 C 19.020 286.800,19.200 287.034,19.200 287.320 C 19.200 288.056,20.141 289.993,20.500 289.997 C 20.665 289.999,20.800 290.360,20.800 290.800 C 20.800 291.240,20.980 291.600,21.200 291.600 C 21.420 291.600,21.600 291.945,21.600 292.367 C 21.600 292.788,21.735 293.193,21.900 293.267 C 22.065 293.340,22.633 294.255,23.163 295.300 C 23.692 296.345,24.277 297.200,24.463 297.200 C 24.648 297.200,24.800 297.560,24.800 298.000 C 24.800 298.440,24.980 298.800,25.200 298.800 C 25.420 298.800,25.600 299.149,25.600 299.576 C 25.600 300.003,25.768 300.457,25.974 300.584 C 26.180 300.711,26.831 301.802,27.421 303.008 C 28.011 304.213,28.609 305.200,28.749 305.200 C 28.890 305.200,29.229 305.706,29.503 306.325 C 29.776 306.944,30.315 307.799,30.700 308.225 C 31.085 308.651,31.655 309.495,31.968 310.100 C 32.280 310.705,32.685 311.200,32.868 311.200 C 33.050 311.200,33.200 311.520,33.200 311.912 C 33.200 312.303,33.560 312.883,34.000 313.200 C 34.440 313.517,34.800 314.025,34.800 314.328 C 34.800 314.631,35.340 315.383,36.000 316.000 C 36.660 316.617,37.200 317.369,37.200 317.672 C 37.200 317.975,37.560 318.483,38.000 318.800 C 38.440 319.117,38.800 319.607,38.800 319.888 C 38.800 320.170,38.980 320.400,39.200 320.400 C 39.420 320.400,39.600 320.598,39.600 320.840 C 39.600 321.081,40.140 321.783,40.800 322.400 C 41.460 323.017,42.003 323.674,42.006 323.860 C 42.010 324.047,42.550 324.809,43.206 325.554 C 43.863 326.299,44.400 327.032,44.400 327.183 C 44.400 327.333,45.165 328.261,46.100 329.243 C 47.035 330.226,48.326 331.727,48.969 332.579 C 49.612 333.431,51.836 335.791,53.911 337.823 C 55.985 339.855,57.889 341.726,58.141 341.980 C 58.394 342.235,60.365 344.233,62.522 346.421 C 64.680 348.610,66.606 350.400,66.803 350.400 C 66.999 350.400,68.244 351.480,69.568 352.800 C 70.892 354.120,72.127 355.200,72.312 355.200 C 72.498 355.200,72.998 355.520,73.425 355.912 C 73.851 356.304,74.920 357.157,75.800 357.808 C 76.680 358.459,77.691 359.308,78.047 359.696 C 78.403 360.083,78.898 360.400,79.147 360.400 C 79.396 360.400,79.600 360.580,79.600 360.800 C 79.600 361.020,79.830 361.200,80.112 361.200 C 80.393 361.200,80.883 361.560,81.200 362.000 C 81.517 362.440,81.962 362.800,82.188 362.801 C 82.415 362.801,83.230 363.341,84.000 364.000 C 84.770 364.659,85.585 365.199,85.812 365.199 C 86.038 365.200,86.483 365.560,86.800 366.000 C 87.117 366.440,87.657 366.800,88.000 366.800 C 88.343 366.800,88.883 367.160,89.200 367.600 C 89.517 368.040,90.057 368.400,90.400 368.400 C 90.743 368.400,91.283 368.760,91.600 369.200 C 91.917 369.640,92.302 370.000,92.456 370.000 C 92.610 370.000,94.353 370.990,96.330 372.200 C 98.307 373.410,100.211 374.400,100.562 374.400 C 100.913 374.400,101.200 374.580,101.200 374.800 C 101.200 375.020,101.560 375.200,102.000 375.200 C 102.440 375.200,102.800 375.352,102.800 375.537 C 102.800 375.723,103.655 376.308,104.700 376.837 C 105.745 377.367,106.660 377.935,106.733 378.100 C 106.807 378.265,107.212 378.400,107.633 378.400 C 108.055 378.400,108.400 378.580,108.400 378.800 C 108.400 379.020,108.760 379.200,109.200 379.200 C 109.640 379.200,110.000 379.380,110.000 379.600 C 110.000 379.820,110.360 380.000,110.800 380.000 C 111.240 380.000,111.600 380.180,111.600 380.400 C 111.600 380.620,111.960 380.800,112.400 380.800 C 112.840 380.800,113.200 380.980,113.200 381.200 C 113.200 381.420,113.650 381.600,114.200 381.600 C 114.750 381.600,115.200 381.780,115.200 382.000 C 115.200 382.220,115.560 382.400,116.000 382.400 C 116.440 382.400,116.800 382.580,116.800 382.800 C 116.800 383.020,117.160 383.200,117.600 383.200 C 118.040 383.200,118.400 383.380,118.400 383.600 C 118.400 383.820,118.760 384.000,119.200 384.000 C 119.640 384.000,120.000 384.147,120.000 384.328 C 120.000 384.508,120.900 384.900,122.000 385.200 C 123.100 385.500,124.000 385.892,124.000 386.072 C 124.000 386.253,124.272 386.400,124.605 386.400 C 124.938 386.400,125.568 386.580,126.005 386.800 C 126.442 387.020,127.158 387.380,127.595 387.600 C 128.032 387.820,128.752 388.000,129.195 388.000 C 129.638 388.000,130.000 388.180,130.000 388.400 C 130.000 388.620,130.362 388.800,130.805 388.800 C 131.248 388.800,131.923 388.976,132.305 389.192 C 133.425 389.823,139.297 391.600,140.265 391.600 C 140.753 391.600,141.264 391.780,141.400 392.000 C 141.536 392.220,142.166 392.400,142.800 392.400 C 143.434 392.400,144.064 392.580,144.200 392.800 C 144.336 393.020,144.977 393.200,145.624 393.200 C 146.271 393.200,146.800 393.380,146.800 393.600 C 146.800 393.820,147.430 394.000,148.200 394.000 C 149.000 394.000,149.600 394.200,149.600 394.467 C 149.600 394.723,149.705 394.829,149.832 394.701 C 150.414 394.119,146.995 390.581,112.790 356.353 C 71.538 315.073,74.200 318.161,74.200 311.600 C 74.200 305.670,76.865 301.242,82.078 298.512 L 84.200 297.400 155.331 297.294 C 201.663 297.224,226.417 297.050,226.331 296.794 C 226.259 296.578,204.858 275.026,178.773 248.901 C 142.773 212.845,131.143 200.966,130.503 199.600 C 124.404 186.584,138.637 173.629,150.966 180.975 C 151.865 181.510,159.799 189.160,168.598 197.974 C 177.397 206.788,184.820 214.000,185.093 214.000 C 185.487 214.000,185.612 200.537,185.695 149.300 L 185.800 84.600 186.833 82.399 C 189.302 77.135,194.016 74.200,200.000 74.200 C 206.729 74.200,197.064 65.130,299.813 167.861 C 396.069 264.099,392.400 260.560,392.400 257.175 C 392.400 256.555,392.580 255.936,392.800 255.800 C 393.020 255.664,393.200 255.124,393.200 254.600 C 393.200 254.076,393.380 253.536,393.600 253.400 C 393.820 253.264,394.000 252.533,394.000 251.776 C 394.000 251.019,394.180 250.400,394.400 250.400 C 394.620 250.400,394.800 249.691,394.800 248.824 C 394.800 247.957,394.980 247.136,395.200 247.000 C 395.420 246.864,395.600 246.054,395.600 245.200 C 395.600 244.346,395.780 243.536,396.000 243.400 C 396.220 243.264,396.400 242.454,396.400 241.600 C 396.400 240.746,396.580 239.936,396.800 239.800 C 397.020 239.664,397.200 238.663,397.200 237.576 C 397.200 236.489,397.380 235.600,397.600 235.600 C 397.820 235.600,398.000 234.621,398.000 233.424 C 398.000 232.227,398.180 231.136,398.400 231.000 C 398.620 230.864,398.800 229.518,398.800 228.010 C 398.800 226.171,398.965 225.212,399.300 225.100 C 399.693 224.969,399.800 219.591,399.800 200.000 C 399.800 180.409,399.693 175.031,399.300 174.900 C 398.965 174.788,398.800 173.829,398.800 171.990 C 398.800 170.482,398.620 169.136,398.400 169.000 C 398.180 168.864,398.000 167.773,398.000 166.576 C 398.000 165.379,397.820 164.400,397.600 164.400 C 397.380 164.400,397.200 163.511,397.200 162.424 C 397.200 161.337,397.020 160.336,396.800 160.200 C 396.580 160.064,396.400 159.254,396.400 158.400 C 396.400 157.546,396.220 156.736,396.000 156.600 C 395.780 156.464,395.600 155.553,395.600 154.576 C 395.600 153.599,395.420 152.800,395.200 152.800 C 394.980 152.800,394.800 152.080,394.800 151.200 C 394.800 150.320,394.620 149.600,394.400 149.600 C 394.180 149.600,394.000 148.981,394.000 148.224 C 394.000 147.467,393.820 146.736,393.600 146.600 C 393.380 146.464,393.200 145.924,393.200 145.400 C 393.200 144.876,393.020 144.336,392.800 144.200 C 392.580 144.064,392.400 143.333,392.400 142.576 C 392.400 141.819,392.220 141.200,392.000 141.200 C 391.780 141.200,391.600 140.754,391.600 140.208 C 391.600 139.314,390.086 134.212,389.224 132.200 C 389.035 131.760,388.664 130.770,388.400 130.000 C 387.818 128.307,387.229 126.840,386.753 125.905 C 386.559 125.523,386.400 124.938,386.400 124.605 C 386.400 124.272,386.220 124.000,386.000 124.000 C 385.780 124.000,385.600 123.561,385.600 123.024 C 385.600 122.487,385.420 121.936,385.200 121.800 C 384.980 121.664,384.800 121.203,384.800 120.776 C 384.800 120.349,384.620 120.000,384.400 120.000 C 384.180 120.000,384.000 119.640,384.000 119.200 C 384.000 118.760,383.820 118.400,383.600 118.400 C 383.380 118.400,383.200 118.040,383.200 117.600 C 383.200 117.160,383.020 116.800,382.800 116.800 C 382.580 116.800,382.400 116.451,382.400 116.024 C 382.400 115.597,382.220 115.136,382.000 115.000 C 381.780 114.864,381.600 114.403,381.600 113.976 C 381.600 113.549,381.420 113.200,381.200 113.200 C 380.980 113.200,380.800 112.840,380.800 112.400 C 380.800 111.960,380.620 111.600,380.400 111.600 C 380.180 111.600,380.000 111.240,380.000 110.800 C 380.000 110.360,379.820 110.000,379.600 110.000 C 379.380 110.000,379.200 109.640,379.200 109.200 C 379.200 108.760,379.020 108.400,378.800 108.400 C 378.580 108.400,378.400 108.055,378.400 107.633 C 378.400 107.212,378.265 106.807,378.100 106.733 C 377.935 106.660,377.367 105.745,376.837 104.700 C 376.308 103.655,375.723 102.800,375.537 102.800 C 375.352 102.800,375.200 102.440,375.200 102.000 C 375.200 101.560,375.020 101.200,374.800 101.200 C 374.580 101.200,374.400 100.882,374.400 100.493 C 374.400 100.104,373.950 99.123,373.400 98.314 C 372.850 97.505,372.400 96.733,372.400 96.599 C 372.400 96.217,369.093 91.415,368.728 91.267 C 368.547 91.193,368.400 90.828,368.400 90.455 C 368.400 90.082,368.040 89.517,367.600 89.200 C 367.160 88.883,366.800 88.343,366.800 88.000 C 366.800 87.657,366.440 87.117,366.000 86.800 C 365.560 86.483,365.200 85.991,365.200 85.708 C 365.200 85.425,364.660 84.628,364.000 83.937 C 363.340 83.246,362.800 82.478,362.800 82.229 C 362.800 81.980,362.440 81.517,362.000 81.200 C 361.560 80.883,361.200 80.393,361.200 80.112 C 361.200 79.830,361.020 79.600,360.800 79.600 C 360.580 79.600,360.400 79.370,360.400 79.088 C 360.400 78.807,360.040 78.317,359.600 78.000 C 359.160 77.683,358.800 77.284,358.800 77.115 C 358.800 76.945,358.451 76.400,358.024 75.903 C 357.598 75.406,356.878 74.567,356.424 74.039 C 355.971 73.510,355.600 72.963,355.600 72.824 C 355.600 72.684,354.676 71.586,353.546 70.385 C 352.417 69.183,351.022 67.572,350.446 66.805 C 349.871 66.037,347.780 63.827,345.800 61.893 C 341.483 57.676,342.438 58.631,337.713 53.793 C 335.561 51.590,333.170 49.342,332.400 48.799 C 331.630 48.255,330.230 47.043,329.289 46.105 C 328.349 45.167,327.417 44.400,327.218 44.400 C 327.020 44.400,326.619 44.168,326.329 43.886 C 326.038 43.603,325.080 42.840,324.200 42.190 C 323.320 41.540,322.309 40.692,321.953 40.304 C 321.597 39.917,321.102 39.600,320.853 39.600 C 320.604 39.600,320.400 39.420,320.400 39.200 C 320.400 38.980,320.170 38.800,319.888 38.800 C 319.607 38.800,319.117 38.440,318.800 38.000 C 318.483 37.560,318.020 37.200,317.771 37.200 C 317.522 37.200,316.754 36.660,316.063 36.000 C 315.372 35.340,314.575 34.800,314.292 34.800 C 314.009 34.800,313.517 34.440,313.200 34.000 C 312.883 33.560,312.343 33.200,312.000 33.200 C 311.657 33.200,311.117 32.840,310.800 32.400 C 310.483 31.960,309.986 31.600,309.695 31.600 C 309.404 31.600,308.811 31.269,308.377 30.864 C 307.942 30.459,307.095 29.874,306.493 29.564 C 305.892 29.254,305.051 28.685,304.625 28.300 C 304.198 27.915,303.694 27.600,303.503 27.600 C 303.313 27.600,302.495 27.150,301.686 26.600 C 300.877 26.050,299.896 25.600,299.507 25.600 C 299.118 25.600,298.800 25.420,298.800 25.200 C 298.800 24.980,298.440 24.800,298.000 24.800 C 297.560 24.800,297.200 24.648,297.200 24.463 C 297.200 24.277,296.345 23.692,295.300 23.163 C 294.255 22.633,293.340 22.065,293.267 21.900 C 293.193 21.735,292.788 21.600,292.367 21.600 C 291.945 21.600,291.600 21.420,291.600 21.200 C 291.600 20.980,291.240 20.800,290.800 20.800 C 290.360 20.800,290.000 20.620,290.000 20.400 C 290.000 20.180,289.655 20.000,289.233 20.000 C 288.812 20.000,288.407 19.865,288.333 19.700 C 288.112 19.201,284.778 17.600,283.962 17.600 C 283.543 17.600,283.200 17.420,283.200 17.200 C 283.200 16.980,282.840 16.800,282.400 16.800 C 281.960 16.800,281.600 16.620,281.600 16.400 C 281.600 16.180,281.240 16.000,280.800 16.000 C 280.360 16.000,280.000 15.820,280.000 15.600 C 280.000 15.380,279.651 15.200,279.224 15.200 C 278.797 15.200,278.336 15.020,278.200 14.800 C 278.064 14.580,277.513 14.400,276.976 14.400 C 276.439 14.400,276.000 14.220,276.000 14.000 C 276.000 13.780,275.728 13.600,275.395 13.600 C 275.062 13.600,274.477 13.441,274.095 13.247 C 273.160 12.771,271.693 12.182,270.000 11.600 C 269.230 11.336,268.240 10.965,267.800 10.776 C 265.788 9.914,260.686 8.400,259.792 8.400 C 259.246 8.400,258.800 8.220,258.800 8.000 C 258.800 7.780,258.181 7.600,257.424 7.600 C 256.667 7.600,255.936 7.420,255.800 7.200 C 255.664 6.980,255.124 6.800,254.600 6.800 C 254.076 6.800,253.536 6.620,253.400 6.400 C 253.264 6.180,252.533 6.000,251.776 6.000 C 251.019 6.000,250.400 5.820,250.400 5.600 C 250.400 5.380,249.680 5.200,248.800 5.200 C 247.920 5.200,247.200 5.020,247.200 4.800 C 247.200 4.580,246.401 4.400,245.424 4.400 C 244.447 4.400,243.536 4.220,243.400 4.000 C 243.264 3.780,242.443 3.600,241.576 3.600 C 240.709 3.600,240.000 3.420,240.000 3.200 C 240.000 2.980,239.111 2.800,238.024 2.800 C 236.937 2.800,235.936 2.620,235.800 2.400 C 235.664 2.180,234.483 2.000,233.176 2.000 C 231.859 2.000,230.800 1.822,230.800 1.600 C 230.800 1.372,229.611 1.200,228.033 1.200 C 226.215 1.200,225.211 1.033,225.104 0.713 C 224.944 0.232,187.144 -0.123,178.300 0.274 M334.906 348.204 C 334.414 348.730,334.144 349.235,334.306 349.328 C 334.468 349.420,335.019 348.979,335.530 348.348 C 336.650 346.967,336.168 346.856,334.906 348.204 " stroke="none" fill="#8be46c" fill-rule="evenodd"></path><path id="path1" d="M196.400 74.872 C 195.850 75.102,194.680 75.583,193.800 75.940 C 192.006 76.668,188.400 79.817,188.400 80.655 C 188.400 80.955,188.264 81.200,188.098 81.200 C 187.787 81.200,187.279 82.327,186.465 84.828 C 186.119 85.890,186.000 102.763,186.000 150.505 C 186.000 196.596,185.876 214.829,185.562 215.023 C 185.310 215.179,177.893 208.096,168.062 198.311 C 148.812 179.150,149.259 179.493,143.602 179.493 C 133.247 179.492,126.472 190.169,130.969 199.400 C 132.262 202.054,191.223 261.600,192.558 261.600 C 192.911 261.600,193.200 261.780,193.200 262.000 C 193.200 262.220,193.524 262.400,193.920 262.400 C 194.316 262.400,194.811 262.552,195.020 262.737 C 196.494 264.043,203.506 264.043,204.980 262.737 C 205.189 262.552,205.684 262.400,206.080 262.400 C 206.476 262.400,206.800 262.220,206.800 262.000 C 206.800 261.780,207.055 261.600,207.366 261.600 C 208.096 261.600,266.402 203.333,267.913 201.094 C 274.685 191.057,265.973 177.455,254.200 179.682 C 249.953 180.486,249.008 181.278,231.598 198.642 C 222.467 207.749,214.772 215.200,214.498 215.200 C 214.103 215.200,214.000 201.944,214.000 150.860 C 214.000 105.724,213.871 86.114,213.566 85.160 C 211.828 79.712,209.067 76.803,203.937 75.017 C 201.960 74.328,197.888 74.250,196.400 74.872 M84.378 298.180 C 74.960 301.650,71.570 311.467,76.973 319.631 C 78.445 321.856,82.669 324.800,84.389 324.800 C 84.809 324.800,85.264 324.980,85.400 325.200 C 85.743 325.754,314.257 325.754,314.600 325.200 C 314.736 324.980,315.180 324.800,315.586 324.800 C 318.614 324.800,324.800 318.614,324.800 315.586 C 324.800 315.180,324.980 314.736,325.200 314.600 C 325.420 314.464,325.600 313.114,325.600 311.600 C 325.600 310.086,325.420 308.736,325.200 308.600 C 324.980 308.464,324.800 308.020,324.800 307.614 C 324.800 303.870,319.042 298.856,313.746 297.989 C 309.801 297.343,86.145 297.529,84.378 298.180 " stroke="none" fill="#fbfbfb" fill-rule="evenodd"></path><path id="path2" d="M213.764 83.043 C 213.917 83.679,214.203 85.010,214.398 86.000 C 214.594 86.997,214.763 115.981,214.776 150.989 L 214.800 214.178 231.300 197.709 C 250.279 178.767,250.235 178.800,256.372 178.800 C 258.127 178.800,260.066 179.005,260.681 179.256 C 263.874 180.558,264.711 181.058,266.513 182.745 C 271.742 187.636,272.671 195.740,268.664 201.502 C 267.077 203.785,208.800 261.762,207.200 262.651 C 204.038 264.406,199.290 264.856,195.000 263.806 C 194.073 263.579,197.576 267.298,210.398 280.156 L 226.996 296.800 269.998 296.805 C 316.462 296.810,315.205 296.755,318.938 298.942 C 320.911 300.099,323.255 302.389,324.054 303.942 C 324.354 304.524,324.690 305.090,324.801 305.200 C 326.361 306.738,326.361 316.462,324.801 318.000 C 324.690 318.110,324.333 318.714,324.009 319.342 C 323.287 320.740,319.350 324.400,318.568 324.400 C 318.255 324.400,318.000 324.541,318.000 324.713 C 318.000 325.992,315.562 326.016,199.400 325.890 C 136.040 325.821,83.677 325.612,83.037 325.424 C 82.225 325.186,92.143 335.354,115.937 359.154 C 134.672 377.893,150.000 393.399,150.000 393.612 C 150.000 393.826,150.360 394.000,150.800 394.000 C 151.240 394.000,151.600 394.180,151.600 394.400 C 151.600 394.620,152.410 394.800,153.400 394.800 C 154.390 394.800,155.200 394.937,155.200 395.104 C 155.200 395.271,155.579 395.644,156.042 395.933 C 156.505 396.222,156.764 396.266,156.618 396.030 C 156.451 395.759,156.813 395.600,157.600 395.600 C 158.330 395.600,158.745 395.766,158.600 396.000 C 158.447 396.247,159.137 396.400,160.400 396.400 C 161.663 396.400,162.353 396.553,162.200 396.800 C 162.046 397.050,162.863 397.200,164.376 397.200 C 165.725 397.200,166.800 397.377,166.800 397.600 C 166.800 397.826,167.933 398.000,169.400 398.000 C 170.867 398.000,172.000 398.174,172.000 398.400 C 172.000 398.631,173.256 398.800,174.967 398.800 C 176.984 398.800,177.987 398.960,178.100 399.300 C 178.344 400.031,221.256 400.031,221.500 399.300 C 221.615 398.956,222.660 398.800,224.857 398.800 C 226.882 398.800,227.957 398.654,227.800 398.400 C 227.644 398.148,228.596 398.000,230.376 398.000 C 231.992 398.000,233.200 397.829,233.200 397.600 C 233.200 397.380,234.100 397.200,235.200 397.200 C 236.300 397.200,237.200 397.020,237.200 396.800 C 237.200 396.580,238.190 396.400,239.400 396.400 C 240.610 396.400,241.600 396.220,241.600 396.000 C 241.600 395.780,242.320 395.600,243.200 395.600 C 244.080 395.600,244.800 395.420,244.800 395.200 C 244.800 394.980,245.509 394.800,246.376 394.800 C 247.243 394.800,248.064 394.620,248.200 394.400 C 248.336 394.180,249.067 394.000,249.824 394.000 C 250.581 394.000,251.200 393.806,251.200 393.570 C 251.200 393.333,251.695 393.172,252.300 393.212 C 254.027 393.326,254.466 393.231,254.200 392.800 C 254.053 392.562,254.529 392.400,255.376 392.400 C 256.159 392.400,256.800 392.220,256.800 392.000 C 256.800 391.780,257.430 391.600,258.200 391.600 C 258.970 391.600,259.600 391.420,259.600 391.200 C 259.600 390.980,260.140 390.800,260.800 390.800 C 261.460 390.800,262.000 390.598,262.000 390.350 C 262.000 390.063,262.436 389.987,263.200 390.140 C 264.122 390.324,264.400 390.236,264.400 389.758 C 264.400 389.274,264.668 389.195,265.611 389.403 C 266.511 389.600,266.794 389.531,266.711 389.134 C 266.637 388.777,266.967 388.625,267.709 388.677 C 268.319 388.719,268.721 388.596,268.603 388.404 C 268.237 387.812,269.201 387.503,269.818 388.015 C 270.287 388.404,270.400 388.372,270.400 387.849 C 270.400 387.395,270.760 387.200,271.600 387.200 C 272.260 387.200,272.800 387.020,272.800 386.800 C 272.800 386.580,273.160 386.400,273.600 386.400 C 274.040 386.400,274.400 386.220,274.400 386.000 C 274.400 385.780,274.850 385.600,275.400 385.600 C 275.950 385.600,276.400 385.420,276.400 385.200 C 276.400 384.980,276.850 384.800,277.400 384.800 C 277.950 384.800,278.400 384.620,278.400 384.400 C 278.400 384.180,278.749 384.000,279.176 384.000 C 279.603 384.000,280.064 383.820,280.200 383.600 C 280.336 383.380,280.797 383.200,281.224 383.200 C 281.651 383.200,282.000 383.020,282.000 382.800 C 282.000 382.580,282.360 382.400,282.800 382.400 C 283.240 382.400,283.600 382.220,283.600 382.000 C 283.600 381.780,283.960 381.600,284.400 381.600 C 284.840 381.600,285.200 381.420,285.200 381.200 C 285.200 380.980,285.472 380.800,285.805 380.800 C 286.482 380.800,288.061 379.992,288.459 379.443 C 288.602 379.246,289.083 379.181,289.529 379.297 C 290.108 379.449,290.279 379.351,290.127 378.955 C 289.987 378.590,290.203 378.400,290.757 378.400 C 291.221 378.400,291.600 378.220,291.600 378.000 C 291.600 377.780,291.960 377.600,292.400 377.600 C 292.840 377.600,293.200 377.420,293.200 377.200 C 293.200 376.980,293.560 376.800,294.000 376.800 C 294.440 376.800,294.800 376.620,294.800 376.400 C 294.800 376.180,295.081 376.000,295.424 376.000 C 295.793 376.000,295.931 376.188,295.762 376.462 C 295.585 376.748,295.652 376.815,295.938 376.638 C 296.192 376.481,296.400 376.093,296.400 375.776 C 296.400 375.459,296.670 375.200,297.000 375.200 C 297.330 375.200,297.600 375.000,297.600 374.757 C 297.600 374.480,297.988 374.411,298.634 374.573 C 299.202 374.715,299.571 374.677,299.454 374.487 C 299.337 374.298,299.615 373.822,300.072 373.431 C 300.750 372.851,300.966 372.819,301.245 373.260 C 301.507 373.673,301.589 373.626,301.594 373.063 C 301.597 372.657,301.960 372.231,302.400 372.116 C 302.840 372.001,303.200 371.777,303.200 371.619 C 303.200 371.460,304.235 370.812,305.500 370.178 C 306.765 369.544,307.860 368.885,307.933 368.713 C 308.007 368.541,308.230 368.400,308.429 368.400 C 308.751 368.400,309.531 367.841,310.945 366.600 C 311.195 366.380,311.895 365.945,312.500 365.632 C 313.105 365.320,313.600 364.915,313.600 364.732 C 313.600 364.550,313.920 364.400,314.312 364.400 C 314.703 364.400,315.283 364.040,315.600 363.600 C 315.917 363.160,316.367 362.800,316.600 362.800 C 316.833 362.800,317.283 362.440,317.600 362.000 C 317.917 361.560,318.407 361.200,318.688 361.200 C 318.970 361.200,319.200 361.020,319.200 360.800 C 319.200 360.580,319.398 360.400,319.640 360.400 C 319.881 360.400,320.583 359.860,321.200 359.200 C 321.817 358.540,322.537 358.000,322.800 358.000 C 323.063 358.000,323.756 357.498,324.340 356.885 C 324.923 356.271,326.030 355.335,326.800 354.804 C 327.570 354.272,328.470 353.553,328.800 353.205 C 330.059 351.876,331.712 350.821,332.147 351.070 C 332.396 351.212,332.480 351.194,332.332 351.030 C 332.185 350.865,336.055 346.728,340.932 341.836 C 345.810 336.944,350.310 332.286,350.932 331.485 C 351.555 330.685,352.680 329.358,353.432 328.537 C 354.185 327.716,354.800 326.885,354.800 326.690 C 354.800 326.496,355.520 325.646,356.400 324.800 C 357.280 323.954,358.000 323.095,358.000 322.891 C 358.000 322.686,358.540 321.954,359.200 321.263 C 359.860 320.572,360.400 319.852,360.400 319.663 C 360.400 319.474,360.940 318.754,361.600 318.063 C 362.260 317.372,362.800 316.665,362.800 316.492 C 362.800 316.319,363.160 315.917,363.600 315.600 C 364.040 315.283,364.400 314.703,364.400 314.312 C 364.400 313.920,364.580 313.600,364.800 313.600 C 365.020 313.600,365.200 313.330,365.200 313.000 C 365.200 312.670,365.380 312.400,365.600 312.400 C 365.820 312.400,366.000 312.222,366.000 312.005 C 366.000 311.633,366.760 310.585,367.900 309.384 C 368.175 309.094,368.400 308.664,368.400 308.429 C 368.400 308.193,368.580 308.000,368.800 308.000 C 369.020 308.000,369.200 307.653,369.200 307.229 C 369.200 306.804,369.425 306.219,369.700 305.929 C 369.975 305.638,370.464 304.890,370.786 304.266 C 371.108 303.642,371.748 302.726,372.207 302.230 C 372.667 301.734,372.973 301.120,372.888 300.864 C 372.803 300.609,372.928 300.400,373.167 300.400 C 373.405 300.400,373.600 300.040,373.600 299.600 C 373.600 298.713,374.211 298.520,374.551 299.300 C 374.670 299.575,374.666 299.305,374.541 298.700 C 374.416 298.095,374.479 297.600,374.682 297.600 C 374.885 297.600,375.298 296.970,375.600 296.200 C 375.902 295.430,376.296 294.800,376.475 294.800 C 376.654 294.800,376.800 294.440,376.800 294.000 C 376.800 293.560,376.980 293.200,377.200 293.200 C 377.420 293.200,377.600 292.840,377.600 292.400 C 377.600 291.960,377.780 291.600,378.000 291.600 C 378.220 291.600,378.400 291.221,378.400 290.757 C 378.400 290.216,378.592 289.988,378.938 290.121 C 379.323 290.268,379.423 290.054,379.291 289.363 C 379.185 288.811,379.297 288.400,379.553 288.400 C 379.799 288.400,380.000 288.040,380.000 287.600 C 380.000 287.160,380.180 286.800,380.400 286.800 C 380.620 286.800,380.800 286.421,380.800 285.957 C 380.800 285.416,380.992 285.188,381.338 285.321 C 381.723 285.468,381.823 285.254,381.691 284.563 C 381.585 284.011,381.697 283.600,381.953 283.600 C 382.199 283.600,382.400 283.240,382.400 282.800 C 382.400 282.360,382.580 282.000,382.800 282.000 C 383.020 282.000,383.200 281.550,383.200 281.000 C 383.200 280.450,383.380 280.000,383.600 280.000 C 383.820 280.000,384.000 279.640,384.000 279.200 C 384.000 278.760,384.180 278.400,384.400 278.400 C 384.620 278.400,384.800 277.950,384.800 277.400 C 384.800 276.850,384.980 276.400,385.200 276.400 C 385.420 276.400,385.600 275.950,385.600 275.400 C 385.600 274.850,385.780 274.400,386.000 274.400 C 386.220 274.400,386.400 274.040,386.400 273.600 C 386.400 273.160,386.558 272.800,386.750 272.800 C 386.943 272.800,387.100 272.330,387.100 271.755 C 387.100 271.179,387.309 270.580,387.564 270.423 C 387.818 270.265,387.912 269.837,387.772 269.471 C 387.612 269.055,387.757 268.715,388.158 268.561 C 388.511 268.425,388.800 267.873,388.800 267.334 C 388.800 266.794,388.969 266.457,389.176 266.585 C 389.400 266.723,389.460 266.245,389.324 265.409 C 389.175 264.493,389.254 264.000,389.548 264.000 C 389.796 264.000,390.000 263.550,390.000 263.000 C 390.000 262.450,390.180 262.000,390.400 262.000 C 390.620 262.000,390.800 261.370,390.800 260.601 C 390.800 259.273,386.288 254.690,302.142 170.544 C 237.344 105.745,213.560 82.197,213.764 83.043 " stroke="none" fill="#04dc84" fill-rule="evenodd"></path><path id="path3" d="M195.134 74.748 C 191.399 76.247,188.520 78.906,186.851 82.400 L 185.800 84.600 185.695 149.300 C 185.612 200.537,185.487 214.000,185.093 214.000 C 184.820 214.000,177.397 206.788,168.598 197.974 C 159.799 189.160,151.865 181.510,150.966 180.975 C 138.638 173.629,124.398 186.590,130.504 199.600 C 132.073 202.942,193.200 263.791,193.200 262.010 C 193.200 261.785,192.911 261.600,192.558 261.600 C 191.223 261.600,132.262 202.054,130.969 199.400 C 126.472 190.169,133.247 179.492,143.602 179.493 C 149.259 179.493,148.812 179.150,168.062 198.311 C 177.893 208.096,185.310 215.179,185.562 215.023 C 185.876 214.829,186.000 196.596,186.000 150.505 C 186.000 102.763,186.119 85.890,186.465 84.828 C 187.279 82.327,187.787 81.200,188.098 81.200 C 188.264 81.200,188.400 80.967,188.400 80.683 C 188.400 80.399,189.165 79.429,190.100 78.527 C 196.950 71.920,208.300 73.639,212.209 81.875 C 212.571 82.639,212.956 83.178,213.062 83.071 C 213.456 82.678,211.517 79.518,209.947 77.995 C 206.207 74.365,199.662 72.930,195.134 74.748 M213.234 84.000 C 213.246 84.330,213.411 84.960,213.600 85.400 L 213.944 86.200 213.966 85.400 C 213.978 84.960,213.813 84.330,213.600 84.000 C 213.255 83.467,213.215 83.467,213.234 84.000 M214.099 151.100 C 214.020 202.045,214.102 215.200,214.498 215.200 C 214.772 215.200,222.467 207.749,231.598 198.642 C 249.008 181.278,249.953 180.486,254.200 179.682 C 265.973 177.455,274.685 191.057,267.913 201.094 C 267.285 202.025,253.794 215.757,237.935 231.610 C 222.075 247.462,209.176 260.510,209.271 260.604 C 209.866 261.199,268.378 201.665,269.424 199.400 C 274.175 189.111,264.901 176.911,254.099 179.238 C 249.308 180.271,248.825 180.672,231.101 198.330 L 214.402 214.967 214.300 150.984 L 214.198 87.000 214.099 151.100 M196.200 263.600 C 196.640 263.789,197.450 263.938,198.000 263.932 L 199.000 263.920 198.000 263.600 C 197.450 263.424,196.640 263.274,196.200 263.268 L 195.400 263.256 196.200 263.600 M202.000 263.600 L 201.000 263.920 202.000 263.932 C 202.550 263.938,203.360 263.789,203.800 263.600 L 204.600 263.256 203.800 263.268 C 203.360 263.274,202.550 263.424,202.000 263.600 M200.200 297.595 C 306.904 297.786,314.715 297.846,316.304 298.484 C 318.581 299.397,321.367 301.348,322.327 302.701 C 323.710 304.651,324.800 306.805,324.800 307.589 C 324.800 308.009,324.987 308.468,325.216 308.610 C 325.489 308.779,325.538 308.477,325.359 307.734 C 324.503 304.176,321.398 300.530,317.672 298.707 L 315.000 297.400 200.400 297.395 L 85.800 297.389 200.200 297.595 M81.887 298.644 C 70.323 304.448,72.097 322.357,84.534 325.359 C 85.277 325.538,85.579 325.489,85.410 325.216 C 85.268 324.987,84.809 324.800,84.389 324.800 C 82.669 324.800,78.445 321.856,76.973 319.631 C 71.575 311.474,74.961 301.647,84.362 298.186 C 85.562 297.744,85.634 297.659,84.800 297.670 C 84.250 297.678,82.939 298.116,81.887 298.644 M325.720 311.600 C 325.720 312.810,325.795 313.305,325.887 312.700 C 325.978 312.095,325.978 311.105,325.887 310.500 C 325.795 309.895,325.720 310.390,325.720 311.600 M325.067 314.667 C 324.920 314.813,324.800 315.246,324.800 315.629 C 324.800 318.618,318.589 324.800,315.586 324.800 C 315.180 324.800,314.732 324.987,314.590 325.216 C 314.190 325.863,316.331 325.242,318.515 324.077 C 321.642 322.410,324.574 318.731,325.351 315.500 C 325.619 314.386,325.550 314.184,325.067 314.667 M143.100 325.900 C 174.395 325.957,225.605 325.957,256.900 325.900 C 288.195 325.843,262.590 325.797,200.000 325.797 C 137.410 325.797,111.805 325.843,143.100 325.900 " stroke="none" fill="#a5efcb" fill-rule="evenodd"></path><path id="path4" d="M213.091 82.630 L 214.200 85.000 214.308 149.973 L 214.416 214.946 231.308 198.153 C 243.703 185.831,248.654 181.163,249.904 180.618 C 250.841 180.209,251.534 179.800,251.443 179.710 C 250.633 178.899,246.367 182.716,231.300 197.733 L 214.800 214.178 214.776 150.989 C 214.761 111.219,214.606 87.059,214.358 85.800 C 214.142 84.700,213.863 83.316,213.740 82.724 C 213.617 82.132,213.171 81.336,212.749 80.954 C 212.120 80.385,212.182 80.686,213.091 82.630 M252.400 179.200 C 251.642 179.690,252.870 179.690,254.400 179.200 C 255.380 178.886,255.376 178.879,254.200 178.846 C 253.540 178.827,252.730 178.987,252.400 179.200 M257.633 178.947 C 257.725 179.028,258.520 179.214,259.400 179.362 C 260.546 179.554,260.830 179.514,260.400 179.221 C 259.860 178.853,257.232 178.593,257.633 178.947 M263.996 181.121 C 266.367 182.736,268.079 184.657,269.189 186.946 C 269.844 188.296,270.384 189.169,270.390 188.887 C 270.427 187.003,264.989 180.353,263.468 180.421 C 263.210 180.433,263.448 180.748,263.996 181.121 M270.586 193.440 C 270.579 195.534,270.701 196.922,270.858 196.524 C 271.221 195.604,271.231 191.219,270.872 190.316 C 270.722 189.939,270.594 191.345,270.586 193.440 M269.257 199.667 C 268.457 201.517,264.446 205.708,239.074 231.200 L 209.814 260.600 239.266 231.200 C 267.521 202.996,270.820 199.461,270.313 197.938 C 270.239 197.716,269.764 198.495,269.257 199.667 M390.800 260.600 C 390.800 261.370,390.620 262.000,390.400 262.000 C 390.180 262.000,390.000 262.450,390.000 263.000 C 390.000 263.550,389.820 264.000,389.600 264.000 C 389.380 264.000,389.206 264.495,389.214 265.100 L 389.228 266.200 389.800 265.200 C 390.114 264.650,390.378 263.885,390.386 263.500 C 390.394 263.115,390.550 262.800,390.733 262.800 C 390.917 262.800,391.070 262.575,391.073 262.300 C 391.076 262.025,391.211 261.215,391.371 260.500 C 391.561 259.656,391.512 259.200,391.232 259.200 C 390.994 259.200,390.800 259.830,390.800 260.600 M208.000 261.604 C 204.795 264.125,198.846 264.741,194.600 262.992 C 193.280 262.449,192.115 262.003,192.011 262.002 C 191.907 262.001,199.533 269.719,208.959 279.154 C 218.384 288.589,226.217 296.503,226.364 296.742 C 226.554 297.049,239.624 297.209,270.941 297.288 C 295.311 297.350,314.833 297.283,314.325 297.140 C 313.816 296.997,293.959 296.862,270.198 296.840 L 226.996 296.800 210.398 280.156 C 197.576 267.298,194.073 263.579,195.000 263.806 C 200.263 265.095,206.332 264.024,209.129 261.312 C 209.955 260.511,209.113 260.729,208.000 261.604 M387.867 268.667 C 387.406 269.127,387.575 269.600,388.200 269.600 C 388.530 269.600,388.800 269.330,388.800 269.000 C 388.800 268.375,388.327 268.206,387.867 268.667 M387.084 271.200 C 386.948 271.720,387.072 272.000,387.437 272.000 C 387.747 272.000,388.000 271.640,388.000 271.200 C 388.000 270.760,387.841 270.400,387.647 270.400 C 387.452 270.400,387.199 270.760,387.084 271.200 M385.600 275.224 C 385.600 275.677,385.780 275.936,386.000 275.800 C 386.220 275.664,386.400 275.293,386.400 274.976 C 386.400 274.659,386.220 274.400,386.000 274.400 C 385.780 274.400,385.600 274.771,385.600 275.224 M384.800 277.000 C 384.800 277.330,384.980 277.600,385.200 277.600 C 385.420 277.600,385.600 277.330,385.600 277.000 C 385.600 276.670,385.420 276.400,385.200 276.400 C 384.980 276.400,384.800 276.670,384.800 277.000 M383.200 280.824 C 383.200 281.277,383.380 281.536,383.600 281.400 C 383.820 281.264,384.000 280.893,384.000 280.576 C 384.000 280.259,383.820 280.000,383.600 280.000 C 383.380 280.000,383.200 280.371,383.200 280.824 M382.400 282.600 C 382.400 282.930,382.580 283.200,382.800 283.200 C 383.020 283.200,383.200 282.930,383.200 282.600 C 383.200 282.270,383.020 282.000,382.800 282.000 C 382.580 282.000,382.400 282.270,382.400 282.600 M381.600 284.200 C 381.600 284.530,381.780 284.800,382.000 284.800 C 382.220 284.800,382.400 284.530,382.400 284.200 C 382.400 283.870,382.220 283.600,382.000 283.600 C 381.780 283.600,381.600 283.870,381.600 284.200 M380.000 287.400 C 380.000 287.730,380.180 288.000,380.400 288.000 C 380.620 288.000,380.800 287.730,380.800 287.400 C 380.800 287.070,380.620 286.800,380.400 286.800 C 380.180 286.800,380.000 287.070,380.000 287.400 M379.200 289.000 C 379.200 289.330,379.380 289.600,379.600 289.600 C 379.820 289.600,380.000 289.330,380.000 289.000 C 380.000 288.670,379.820 288.400,379.600 288.400 C 379.380 288.400,379.200 288.670,379.200 289.000 M317.138 298.428 C 319.660 299.548,321.054 300.639,322.828 302.883 C 323.693 303.977,324.400 304.738,324.400 304.574 C 324.400 302.919,317.908 297.554,316.000 297.632 C 315.670 297.645,316.182 298.004,317.138 298.428 M374.400 298.200 C 374.400 298.530,374.220 298.800,374.000 298.800 C 373.780 298.800,373.600 299.160,373.600 299.600 C 373.600 300.040,373.420 300.400,373.200 300.400 C 372.980 300.400,372.800 300.580,372.800 300.800 C 372.800 301.678,373.667 301.128,374.060 300.000 C 374.290 299.340,374.641 298.800,374.839 298.800 C 375.038 298.800,375.200 298.530,375.200 298.200 C 375.200 297.870,375.020 297.600,374.800 297.600 C 374.580 297.600,374.400 297.870,374.400 298.200 M371.453 303.191 C 370.874 304.067,370.400 304.890,370.400 305.020 C 370.400 305.150,370.130 305.527,369.800 305.857 C 369.470 306.187,369.204 306.759,369.209 307.129 C 369.219 307.912,370.776 306.146,370.791 305.333 C 370.796 305.077,370.935 304.807,371.100 304.733 C 371.444 304.580,373.200 302.142,373.200 301.816 C 373.200 301.151,372.373 301.802,371.453 303.191 M325.246 307.200 C 325.265 307.530,325.424 308.250,325.600 308.800 L 325.920 309.800 325.954 308.800 C 325.973 308.250,325.813 307.530,325.600 307.200 C 325.255 306.667,325.216 306.667,325.246 307.200 M367.600 309.525 C 367.600 309.703,367.222 310.255,366.760 310.751 C 365.852 311.725,365.999 312.458,366.918 311.539 C 367.807 310.650,368.487 309.200,368.014 309.200 C 367.786 309.200,367.600 309.346,367.600 309.525 M365.200 312.967 C 365.200 313.278,364.975 313.614,364.700 313.712 C 364.425 313.810,364.326 314.027,364.481 314.193 C 364.793 314.529,365.744 313.656,365.900 312.890 C 365.955 312.621,365.820 312.400,365.600 312.400 C 365.380 312.400,365.200 312.655,365.200 312.967 M325.649 314.000 C 325.616 314.330,325.489 315.050,325.367 315.600 C 325.175 316.464,325.207 316.503,325.599 315.888 C 325.848 315.497,325.975 314.777,325.881 314.288 C 325.786 313.800,325.682 313.670,325.649 314.000 M363.260 315.842 C 362.531 316.666,363.000 317.057,363.781 316.276 C 364.121 315.936,364.400 315.554,364.400 315.429 C 364.400 315.009,363.806 315.224,363.260 315.842 M360.869 318.839 C 360.580 319.300,360.438 319.772,360.553 319.887 C 360.828 320.161,362.000 318.980,362.000 318.429 C 362.000 317.732,361.431 317.938,360.869 318.839 M322.996 320.140 C 322.334 321.034,321.015 322.358,320.065 323.083 C 319.115 323.807,318.506 324.400,318.713 324.400 C 319.261 324.400,322.645 321.341,323.636 319.950 C 324.937 318.122,324.366 318.292,322.996 320.140 M358.469 322.039 C 358.180 322.500,358.049 322.982,358.176 323.110 C 358.415 323.348,359.565 322.036,359.587 321.500 C 359.612 320.911,358.984 321.214,358.469 322.039 M80.919 324.442 C 81.179 324.859,81.829 325.200,82.363 325.200 C 83.486 325.200,83.442 325.137,81.723 324.304 C 80.496 323.708,80.464 323.714,80.919 324.442 M356.100 325.016 C 355.385 325.765,354.800 326.527,354.800 326.710 C 354.800 326.894,354.215 327.685,353.500 328.468 C 351.229 330.957,349.640 332.973,349.812 333.146 C 350.033 333.367,354.400 328.704,354.400 328.247 C 354.400 328.053,354.724 327.603,355.121 327.247 C 356.199 326.279,358.146 323.596,357.747 323.627 C 357.556 323.643,356.815 324.267,356.100 325.016 M84.000 325.600 C 84.330 325.813,85.050 325.973,85.600 325.954 L 86.600 325.920 85.600 325.600 C 84.058 325.106,83.236 325.106,84.000 325.600 M314.400 325.600 L 313.400 325.920 314.400 325.954 C 314.950 325.973,315.670 325.813,316.000 325.600 C 316.764 325.106,315.942 325.106,314.400 325.600 M344.883 337.841 C 343.498 339.260,342.464 340.580,342.584 340.774 C 342.800 341.124,347.200 336.962,347.200 336.409 C 347.200 336.251,347.605 335.927,348.100 335.688 C 348.930 335.288,348.938 335.254,348.200 335.258 C 347.746 335.259,346.312 336.376,344.883 337.841 M341.260 341.442 C 340.531 342.266,341.000 342.657,341.781 341.876 C 342.121 341.536,342.400 341.154,342.400 341.029 C 342.400 340.609,341.806 340.824,341.260 341.442 M338.063 344.659 C 335.713 347.077,335.543 348.170,337.858 345.973 C 340.828 343.155,341.110 342.843,340.891 342.624 C 340.498 342.232,340.244 342.414,338.063 344.659 M330.800 351.496 C 328.929 352.948,328.274 353.598,328.671 353.609 C 328.852 353.614,328.438 353.896,327.750 354.235 C 326.468 354.867,323.600 357.306,323.600 357.763 C 323.600 358.171,325.702 356.717,326.860 355.507 C 327.444 354.898,328.075 354.400,328.263 354.400 C 328.451 354.400,329.413 353.636,330.402 352.702 C 331.391 351.769,332.348 351.053,332.530 351.112 C 332.711 351.171,332.745 351.035,332.606 350.810 C 332.283 350.288,332.426 350.233,330.800 351.496 M321.260 359.051 C 320.743 359.602,320.392 360.126,320.482 360.215 C 320.700 360.433,323.184 358.679,323.193 358.300 C 323.207 357.680,322.167 358.085,321.260 359.051 M319.200 360.800 C 319.200 361.020,318.930 361.200,318.600 361.200 C 318.270 361.200,318.000 361.380,318.000 361.600 C 318.000 362.182,318.768 362.090,319.429 361.429 C 320.099 360.758,320.158 360.400,319.600 360.400 C 319.380 360.400,319.200 360.580,319.200 360.800 M315.445 363.792 C 315.035 364.338,314.544 364.689,314.355 364.572 C 314.165 364.455,313.614 364.728,313.130 365.180 C 312.390 365.869,312.357 366.000,312.925 366.000 C 313.296 366.000,313.600 365.820,313.600 365.600 C 313.600 365.380,313.825 365.200,314.100 365.200 C 314.634 365.199,316.800 363.477,316.800 363.053 C 316.800 362.498,316.150 362.852,315.445 363.792 M310.630 366.824 C 310.159 367.298,310.054 367.600,310.359 367.600 C 310.863 367.600,312.000 366.650,312.000 366.229 C 312.000 365.790,311.394 366.053,310.630 366.824 M307.933 368.713 C 307.860 368.885,306.765 369.544,305.500 370.178 C 304.235 370.812,303.200 371.460,303.200 371.619 C 303.200 371.777,302.840 372.001,302.400 372.116 C 301.960 372.231,301.600 372.522,301.600 372.763 C 301.600 373.423,302.152 373.290,303.108 372.400 C 303.580 371.960,304.154 371.600,304.383 371.600 C 304.612 371.600,304.803 371.465,304.806 371.300 C 304.810 371.135,305.710 370.560,306.806 370.021 C 307.903 369.483,308.800 368.898,308.800 368.721 C 308.800 368.308,308.109 368.302,307.933 368.713 M299.800 373.685 C 299.073 374.447,299.067 374.499,299.733 374.261 C 300.136 374.118,300.631 374.000,300.833 374.000 C 301.035 374.000,301.200 373.730,301.200 373.400 C 301.200 372.590,300.760 372.680,299.800 373.685 M297.600 374.800 C 297.600 375.020,297.870 375.200,298.200 375.200 C 298.530 375.200,298.800 375.020,298.800 374.800 C 298.800 374.580,298.530 374.400,298.200 374.400 C 297.870 374.400,297.600 374.580,297.600 374.800 M285.200 381.200 C 285.200 381.420,285.470 381.600,285.800 381.600 C 286.130 381.600,286.400 381.420,286.400 381.200 C 286.400 380.980,286.130 380.800,285.800 380.800 C 285.470 380.800,285.200 380.980,285.200 381.200 M283.600 382.000 C 283.600 382.220,283.870 382.400,284.200 382.400 C 284.530 382.400,284.800 382.220,284.800 382.000 C 284.800 381.780,284.530 381.600,284.200 381.600 C 283.870 381.600,283.600 381.780,283.600 382.000 M280.020 383.776 C 279.757 384.093,279.285 384.254,278.971 384.133 C 278.657 384.013,278.400 384.114,278.400 384.357 C 278.400 384.601,278.552 384.800,278.739 384.800 C 279.181 384.800,281.600 383.592,281.600 383.371 C 281.600 382.959,280.454 383.253,280.020 383.776 M276.400 385.200 C 276.400 385.420,276.670 385.600,277.000 385.600 C 277.330 385.600,277.600 385.420,277.600 385.200 C 277.600 384.980,277.330 384.800,277.000 384.800 C 276.670 384.800,276.400 384.980,276.400 385.200 M270.400 387.600 C 270.400 387.820,270.760 388.000,271.200 388.000 C 271.640 388.000,272.000 387.820,272.000 387.600 C 272.000 387.380,271.640 387.200,271.200 387.200 C 270.760 387.200,270.400 387.380,270.400 387.600 M268.617 387.972 C 268.321 388.451,269.074 388.925,269.607 388.596 C 270.054 388.319,269.760 387.600,269.200 387.600 C 269.006 387.600,268.744 387.768,268.617 387.972 M266.617 388.772 C 266.216 389.421,267.087 389.618,267.604 388.996 C 268.006 388.511,267.981 388.400,267.473 388.400 C 267.129 388.400,266.744 388.568,266.617 388.772 M264.400 389.763 C 264.400 390.127,264.680 390.252,265.196 390.117 C 265.633 390.003,265.892 389.750,265.772 389.555 C 265.423 388.989,264.400 389.144,264.400 389.763 M262.000 390.400 C 262.000 390.620,261.460 390.800,260.800 390.800 C 260.140 390.800,259.600 390.983,259.600 391.208 C 259.600 391.629,261.255 391.368,262.447 390.759 C 262.803 390.577,263.208 390.542,263.347 390.681 C 263.486 390.820,263.600 390.723,263.600 390.467 C 263.600 390.210,263.240 390.000,262.800 390.000 C 262.360 390.000,262.000 390.180,262.000 390.400 M256.800 392.000 C 256.800 392.220,257.171 392.400,257.624 392.400 C 258.077 392.400,258.336 392.220,258.200 392.000 C 258.064 391.780,257.693 391.600,257.376 391.600 C 257.059 391.600,256.800 391.780,256.800 392.000 M254.200 392.800 C 254.336 393.020,254.696 393.200,255.000 393.200 C 255.304 393.200,255.664 393.020,255.800 392.800 C 255.941 392.572,255.596 392.400,255.000 392.400 C 254.404 392.400,254.059 392.572,254.200 392.800 M149.658 393.700 C 150.104 394.742,151.600 395.281,151.600 394.400 C 151.600 394.180,151.305 394.000,150.944 394.000 C 150.583 394.000,150.040 393.685,149.738 393.300 C 149.259 392.691,149.248 392.743,149.658 393.700 M251.200 393.600 C 251.200 393.820,251.560 394.000,252.000 394.000 C 252.440 394.000,252.800 393.820,252.800 393.600 C 252.800 393.380,252.440 393.200,252.000 393.200 C 251.560 393.200,251.200 393.380,251.200 393.600 M248.200 394.400 C 248.060 394.626,248.388 394.800,248.953 394.800 C 249.503 394.800,250.064 394.620,250.200 394.400 C 250.340 394.174,250.012 394.000,249.447 394.000 C 248.897 394.000,248.336 394.180,248.200 394.400 M153.400 395.200 C 153.260 395.427,153.596 395.600,154.176 395.600 C 154.739 395.600,155.200 395.420,155.200 395.200 C 155.200 394.980,154.851 394.800,154.424 394.800 C 153.997 394.800,153.536 394.980,153.400 395.200 M244.800 395.200 C 244.800 395.420,245.160 395.600,245.600 395.600 C 246.040 395.600,246.400 395.420,246.400 395.200 C 246.400 394.980,246.040 394.800,245.600 394.800 C 245.160 394.800,244.800 394.980,244.800 395.200 M156.800 396.000 C 156.800 396.220,157.149 396.400,157.576 396.400 C 158.003 396.400,158.464 396.220,158.600 396.000 C 158.740 395.773,158.404 395.600,157.824 395.600 C 157.261 395.600,156.800 395.780,156.800 396.000 M241.600 396.000 C 241.600 396.220,241.960 396.400,242.400 396.400 C 242.840 396.400,243.200 396.220,243.200 396.000 C 243.200 395.780,242.840 395.600,242.400 395.600 C 241.960 395.600,241.600 395.780,241.600 396.000 M160.200 396.800 C 160.336 397.020,160.786 397.200,161.200 397.200 C 161.614 397.200,162.064 397.020,162.200 396.800 C 162.345 396.566,161.930 396.400,161.200 396.400 C 160.470 396.400,160.055 396.566,160.200 396.800 M237.200 396.800 C 237.200 397.020,237.650 397.200,238.200 397.200 C 238.750 397.200,239.200 397.020,239.200 396.800 C 239.200 396.580,238.750 396.400,238.200 396.400 C 237.650 396.400,237.200 396.580,237.200 396.800 M164.600 397.600 C 164.736 397.820,165.287 398.000,165.824 398.000 C 166.361 398.000,166.800 397.820,166.800 397.600 C 166.800 397.380,166.249 397.200,165.576 397.200 C 164.863 397.200,164.456 397.367,164.600 397.600 M233.200 397.600 C 233.200 397.820,233.560 398.000,234.000 398.000 C 234.440 398.000,234.800 397.820,234.800 397.600 C 234.800 397.380,234.440 397.200,234.000 397.200 C 233.560 397.200,233.200 397.380,233.200 397.600 M169.800 398.400 C 169.936 398.620,170.487 398.800,171.024 398.800 C 171.561 398.800,172.000 398.620,172.000 398.400 C 172.000 398.180,171.449 398.000,170.776 398.000 C 170.063 398.000,169.656 398.167,169.800 398.400 M227.800 398.400 C 227.936 398.620,228.476 398.800,229.000 398.800 C 229.524 398.800,230.064 398.620,230.200 398.400 C 230.347 398.161,229.863 398.000,229.000 398.000 C 228.137 398.000,227.653 398.161,227.800 398.400 M174.800 399.200 C 174.800 399.420,175.520 399.600,176.400 399.600 C 177.280 399.600,178.000 399.420,178.000 399.200 C 178.000 398.980,177.280 398.800,176.400 398.800 C 175.520 398.800,174.800 398.980,174.800 399.200 M221.600 399.200 C 221.600 399.420,222.410 399.600,223.400 399.600 C 224.390 399.600,225.200 399.420,225.200 399.200 C 225.200 398.980,224.390 398.800,223.400 398.800 C 222.410 398.800,221.600 398.980,221.600 399.200 M183.700 399.887 C 184.305 399.978,185.295 399.978,185.900 399.887 C 186.505 399.795,186.010 399.720,184.800 399.720 C 183.590 399.720,183.095 399.795,183.700 399.887 M213.300 399.891 C 214.125 399.978,215.475 399.978,216.300 399.891 C 217.125 399.805,216.450 399.734,214.800 399.734 C 213.150 399.734,212.475 399.805,213.300 399.891 " stroke="none" fill="#4ce3a0" fill-rule="evenodd"></path></g></svg>